:FULLY-SPECIFIED
:DEGREES
40
root 6.89223051071167 17.66990089416504 -6.270599842071533 90.00000933466734 -0.0 -0.0
lhipjoint -5.528973971617621e-07 -1.7075472925031877e-06 5.635377011264426e-07
lfemur -1.2419822820463722 18.38431304737745 -0.15241831269105263
ltibia 48.86341920908134 -23.890435895837378 9.941929440769472
lfoot 7.325917469783106 3.2120262307927265 -2.8292532516385145
ltoes -16.23999906311404 7.164981991238327 5.038801305447657
rhipjoint -1.4590168159163821e-06 -1.2806604693773908e-06 -1.1362305144035093e-07
rfemur -5.264242371174506 -31.563157928275174 0.5778611110963472
rtibia 16.43225010522968 6.93514228368599 -5.531718128600906
rfoot -2.99542150886117 6.232017424202313 -1.1803371567443626
rtoes 13.864530132996244 4.63185351205642 5.548437151028628
lowerback 7.512955370014736 0.8728519654290262 -0.6719500084818877
upperback 0.8984519413250571 -3.1415431608698374 -0.8662908216792885
thorax -3.250099839660493 -3.83864742204356 -0.4065433981676049
lowerneck -18.071411836215407 9.308522456578231 -3.9512618735314375
upperneck 22.082078426279388 -4.829032108771402 -4.063767895766241
head 10.209847879831454 -2.6965497196977486 -2.102038101508791
lclavicle -1.1905593500282093e-07 5.336085289072462e-08 1.7916324053945998e-07
lhumerus -81.37009263911291 -27.759162617212027 -14.235788480426873
lradius 1.0025815075223226e-07 -1.4947196363266207e-06 29.17212726590715
lwrist -6.790028280605474e-07 -9.177463079236734 9.198408405392027e-07
lhand -23.517784189816066 -6.421093282127544 -14.412240441218628
lfingers -9.414104972780149e-07 5.958838404591767e-07 7.125023250159637
lthumb -45.11592322283254 -33.43364621361818 25.36744722837971
rclavicle -2.343282567121354e-08 -1.5207843073856516e-06 -8.563986979746117e-08
rhumerus -73.95643455925182 28.024836485358012 26.279449944852956
rradius 6.800038631187724e-07 3.209619964142353e-06 -28.441194571878235
rwrist -4.1297426272707707e-07 8.467372707460113 3.6740810969418363e-07
rhand 15.780839596159932 -3.5774537311062793 12.45063230970577
rfingers -4.6239122781278693e-07 1.3831930793101032e-07 -7.125021115725521
rthumb -5.126156009837535 14.770104787686861 -11.06808761602659
41
root 6.654129981994629 17.67970085144043 -5.772200107574463 90.00000933466734 -0.0 -0.0
lhipjoint -5.528973971617621e-07 -1.7075472925031877e-06 5.635377011264426e-07
lfemur -6.058704362221001 19.009637356459624 -1.593442472394072
ltibia 52.22578131860063 -25.645070512478632 9.814814497673657
lfoot 3.781626868418178 2.117412217000255 -1.41368875546885
ltoes -13.22983224305187 5.717564587709191 4.248477128377719
rhipjoint -1.4590168159163821e-06 -1.2806604693773908e-06 -1.1362305144035093e-07
rfemur -2.3133016155093977 -31.84757725059826 -0.09741079724097314
rtibia 16.30325344501753 6.874021482124484 -5.495580451476014
rfoot -4.4594134336284 4.03901187511953 -1.6111969088112856
rtoes 10.904729127873749 3.7710012285037537 4.2876922326105245
lowerback 7.3412401454123835 0.4411874516592318 -0.16663421753031024
upperback 1.032969208655579 -3.20445261822024 -0.16346979889197127
thorax -3.0449358980321195 -3.584262575935136 -0.06671125136620129
lowerneck -16.833288077441566 9.54309591211221 -3.854518220353731
upperneck 21.638474715159983 -5.107711083983915 -4.050142522145713
head 9.828061649568898 -2.842711072180967 -2.095513776747548
lclavicle -1.1905593500282093e-07 5.336085289072462e-08 1.7916324053945998e-07
lhumerus -81.47085841993811 -28.399643116062464 -14.920812911723193
lradius 5.728222236859461e-07 2.9763383898092307e-07 28.308419109507774
lwrist -7.795406195414833e-07 -10.438901688742417 1.0494951089071275e-06
lhand -23.915231190071815 -6.677811918497998 -14.693623744455643
lfingers -9.414104972780149e-07 5.958838404591767e-07 7.125023250159637
lthumb -45.61733082489776 -33.642363134275435 25.302497252014767
rclavicle -2.343282567121354e-08 -1.5207843073856516e-06 -8.563986979746117e-08
rhumerus -74.79777726121398 27.766841457386413 24.14248524413648
rradius 1.3802981384390351e-07 3.113338823491588e-06 -30.070399594601376
rwrist -3.423454151375635e-07 6.966055719869468 3.096894134455424e-07
rhand 15.24483196330672 -3.4551150112310074 12.469370933693698
rfingers -4.6239122781278693e-07 1.3831930793101032e-07 -7.125021115725521
rthumb -5.592844052804288 15.081563121386734 -11.20033288496273
42
root 6.41308069229126 17.685699462890625 -5.309500217437744 90.00000933466734 -0.0 -0.0
lhipjoint -5.528973971617621e-07 -1.7075472925031877e-06 5.635377011264426e-07
lfemur -10.534263936160489 19.513063279424586 -3.331132990530113
ltibia 53.46407753965102 -26.28210859598738 9.739539836604594
lfoot 0.5613086812513502 1.4195823549489246 -0.19937336861501764
ltoes -11.84498065298052 5.067938038673285 3.8613245038616486
rhipjoint -1.4590168159163821e-06 -1.2806604693773908e-06 -1.1362305144035093e-07
rfemur 0.358806325604313 -32.11733557186791 0.1713724344833818
rtibia 16.115967950428487 6.785448442741406 -5.442882553821605
rfoot -6.285930241755339 2.381610337398695 -2.177157162330826
rtoes 12.633914459667537 4.282612279415328 5.0198274668201845
lowerback 7.592621842720118 0.05962605735033038 0.4003039403195189
upperback 1.045489158847624 -3.2892786585133327 0.6262672487136094
thorax -3.1963321636273294 -3.3784322639758626 0.3220977673947704
lowerneck -17.414233232391584 9.299305116293299 -3.559634194448539
upperneck 22.430991809840318 -4.95700381372123 -3.6369822448175255
head 10.194306638148737 -2.809479213661093 -1.906973234898516
lclavicle -1.1905593500282093e-07 5.336085289072462e-08 1.7916324053945998e-07
lhumerus -81.20086787223667 -28.640817095655613 -16.773844941094943
lradius 1.9086399232381522e-07 -1.3088482242973923e-06 27.28822448903423
lwrist -8.200939130631407e-07 -10.94019915400727 1.1013415088807264e-06
lhand -24.70863450179696 -6.5624722215312845 -13.948737827726038
lfingers -9.414104972780149e-07 5.958838404591767e-07 7.125023250159637
lthumb -46.45927799860148 -33.7589442181238 26.45567907072304
rclavicle -2.343282567121354e-08 -1.5207843073856516e-06 -8.563986979746117e-08
rhumerus -75.53217969134127 26.89569180988631 22.884029719750803
rradius -5.509225017045104e-07 2.028672581139213e-06 -31.113000650647145
rwrist -3.062155861780105e-07 6.2058552383602255 2.792887303559284e-07
rhand 14.190176477149528 -3.1646556672475143 12.315993913239184
rfingers -4.6239122781278693e-07 1.3831930793101032e-07 -7.125021115725521
rthumb -6.460954693010562 15.767875897115248 -11.615598994989398
43
root 6.191100597381592 17.648099899291992 -4.851089954376221 90.00000933466734 -0.0 -0.0
lhipjoint -5.528973971617621e-07 -1.7075472925031877e-06 5.635377011264426e-07
lfemur -15.549313258769425 20.2271407741292 -6.340812092396861
ltibia 53.41076449808448 -26.25479296194921 9.743096657614878
lfoot -3.913186130229555 2.3836764696226242 1.387225934581576
ltoes -10.5615821315196 4.475641963096351 3.489705010178656
rhipjoint -1.4590168159163821e-06 -1.2806604693773908e-06 -1.1362305144035093e-07
rfemur 2.0508539445291847 -32.59027153037793 0.2428612230811285
rtibia 16.534656839002974 6.9837266999127605 -5.560317411316219
rfoot -8.513515757945427 1.0367628451309923 -2.858070673520445
rtoes 11.844359959539695 4.052021677941112 4.68395590259257
lowerback 7.400777196860092 -0.9891729684803995 0.9127449659369551
upperback 1.0073837469115343 -3.098953943187046 1.3824442685540381
thorax -3.123645077036642 -2.5120744210653436 0.6839220494364506
lowerneck -17.851114329820405 8.843713569406878 -3.6753926673887385
upperneck 22.824605366424397 -4.900215486527628 -3.888975670942799
head 10.421628140331455 -2.6791135274071753 -1.989364312752499
lclavicle -1.1905593500282093e-07 5.336085289072462e-08 1.7916324053945998e-07
lhumerus -81.22145406239508 -28.99590838532082 -17.05635351799772
lradius 2.4715385618735574e-07 -3.0473086763049087e-06 26.58771858021043
lwrist -8.048522370296935e-07 -10.752299796166573 1.0818856742276523e-06
lhand -23.819383145449027 -6.5417605266468675 -14.470659049189747
lfingers -9.414104972780149e-07 5.958838404591767e-07 7.125023250159637
lthumb -45.476926041224395 -33.55739558100048 25.469942754612212
rclavicle -2.343282567121354e-08 -1.5207843073856516e-06 -8.563986979746117e-08
rhumerus -76.1112089782291 26.011373557666417 22.94424979011551
rradius -8.589928092616882e-07 2.8802893533169004e-06 -32.12900153497029
rwrist -2.682398650590859e-07 5.412760565808202 2.467165935297482e-07
rhand 14.358129975066495 -3.146145427709957 12.101320213852038
rfingers -4.6239122781278693e-07 1.3831930793101032e-07 -7.125021115725521
rthumb -6.251701602503466 15.758151415284443 -11.735830814949132
